<mxfile host="65bd71144e">
    <diagram name="Page-1" id="BWHNkNiEs-IkO5fIKNXb">
        <mxGraphModel dx="716" dy="682" grid="1" gridSize="10" guides="1" tooltips="1" connect="1" arrows="1" fold="1" page="1" pageScale="1" pageWidth="850" pageHeight="1100" math="0" shadow="0">
            <root>
                <mxCell id="0"/>
                <mxCell id="1" parent="0"/>
                <mxCell id="4" style="edgeStyle=none;html=1;entryX=0.5;entryY=0;entryDx=0;entryDy=0;entryPerimeter=0;" edge="1" parent="1" source="5qmP-6OTH-ESlq7DOyJe-1" target="2">
                    <mxGeometry relative="1" as="geometry"/>
                </mxCell>
                <mxCell id="5qmP-6OTH-ESlq7DOyJe-1" value="START" style="rounded=1;whiteSpace=wrap;html=1;" parent="1" vertex="1">
                    <mxGeometry x="170" y="20" width="120" height="60" as="geometry"/>
                </mxCell>
                <mxCell id="5qmP-6OTH-ESlq7DOyJe-2" value="STOP" style="rounded=1;whiteSpace=wrap;html=1;" parent="1" vertex="1">
                    <mxGeometry x="380" y="540" width="120" height="60" as="geometry"/>
                </mxCell>
                <mxCell id="5qmP-6OTH-ESlq7DOyJe-3" value="Print numbers from 1 to 'user number'&lt;br&gt;&lt;br&gt;user = 5&lt;br&gt;a = 5&lt;br&gt;" style="text;html=1;strokeColor=none;fillColor=none;align=center;verticalAlign=middle;whiteSpace=wrap;rounded=0;" parent="1" vertex="1">
                    <mxGeometry x="383" y="30" width="307" height="160" as="geometry"/>
                </mxCell>
                <mxCell id="5qmP-6OTH-ESlq7DOyJe-11" value="" style="edgeStyle=orthogonalEdgeStyle;rounded=0;orthogonalLoop=1;jettySize=auto;html=1;" parent="1" source="5qmP-6OTH-ESlq7DOyJe-4" target="5qmP-6OTH-ESlq7DOyJe-8" edge="1">
                    <mxGeometry relative="1" as="geometry"/>
                </mxCell>
                <mxCell id="5qmP-6OTH-ESlq7DOyJe-4" value="a = 1" style="rounded=0;whiteSpace=wrap;html=1;" parent="1" vertex="1">
                    <mxGeometry x="170" y="240" width="120" height="60" as="geometry"/>
                </mxCell>
                <mxCell id="5qmP-6OTH-ESlq7DOyJe-21" value="" style="edgeStyle=orthogonalEdgeStyle;rounded=0;orthogonalLoop=1;jettySize=auto;html=1;" parent="1" source="5qmP-6OTH-ESlq7DOyJe-5" target="5qmP-6OTH-ESlq7DOyJe-6" edge="1">
                    <mxGeometry relative="1" as="geometry"/>
                </mxCell>
                <mxCell id="5qmP-6OTH-ESlq7DOyJe-5" value="a" style="shape=document;whiteSpace=wrap;html=1;boundedLbl=1;" parent="1" vertex="1">
                    <mxGeometry x="180" y="490" width="100" height="50" as="geometry"/>
                </mxCell>
                <mxCell id="5qmP-6OTH-ESlq7DOyJe-18" style="edgeStyle=orthogonalEdgeStyle;rounded=0;orthogonalLoop=1;jettySize=auto;html=1;" parent="1" source="5qmP-6OTH-ESlq7DOyJe-6" edge="1">
                    <mxGeometry relative="1" as="geometry">
                        <mxPoint x="230" y="650" as="targetPoint"/>
                    </mxGeometry>
                </mxCell>
                <mxCell id="5qmP-6OTH-ESlq7DOyJe-6" value="a = a + 1" style="rounded=0;whiteSpace=wrap;html=1;" parent="1" vertex="1">
                    <mxGeometry x="175" y="570" width="110" height="50" as="geometry"/>
                </mxCell>
                <mxCell id="5qmP-6OTH-ESlq7DOyJe-16" value="" style="edgeStyle=orthogonalEdgeStyle;rounded=0;orthogonalLoop=1;jettySize=auto;html=1;" parent="1" source="5qmP-6OTH-ESlq7DOyJe-8" target="5qmP-6OTH-ESlq7DOyJe-5" edge="1">
                    <mxGeometry relative="1" as="geometry"/>
                </mxCell>
                <mxCell id="5qmP-6OTH-ESlq7DOyJe-19" value="yes" style="edgeLabel;html=1;align=center;verticalAlign=middle;resizable=0;points=[];" parent="5qmP-6OTH-ESlq7DOyJe-16" vertex="1" connectable="0">
                    <mxGeometry x="0.4" relative="1" as="geometry">
                        <mxPoint as="offset"/>
                    </mxGeometry>
                </mxCell>
                <mxCell id="5qmP-6OTH-ESlq7DOyJe-24" style="edgeStyle=orthogonalEdgeStyle;rounded=0;orthogonalLoop=1;jettySize=auto;html=1;" parent="1" source="5qmP-6OTH-ESlq7DOyJe-8" edge="1">
                    <mxGeometry relative="1" as="geometry">
                        <mxPoint x="380" y="385" as="targetPoint"/>
                    </mxGeometry>
                </mxCell>
                <mxCell id="5qmP-6OTH-ESlq7DOyJe-25" value="no" style="edgeLabel;html=1;align=center;verticalAlign=middle;resizable=0;points=[];" parent="5qmP-6OTH-ESlq7DOyJe-24" vertex="1" connectable="0">
                    <mxGeometry x="0.0952" y="1" relative="1" as="geometry">
                        <mxPoint as="offset"/>
                    </mxGeometry>
                </mxCell>
                <mxCell id="5qmP-6OTH-ESlq7DOyJe-8" value="a &amp;lt;= userN&lt;br&gt;?" style="ellipse;whiteSpace=wrap;html=1;aspect=fixed;" parent="1" vertex="1">
                    <mxGeometry x="190" y="345" width="80" height="80" as="geometry"/>
                </mxCell>
                <mxCell id="5qmP-6OTH-ESlq7DOyJe-9" value="" style="shape=link;html=1;rounded=0;" parent="1" edge="1">
                    <mxGeometry width="100" relative="1" as="geometry">
                        <mxPoint x="185" y="650" as="sourcePoint"/>
                        <mxPoint x="285" y="650" as="targetPoint"/>
                    </mxGeometry>
                </mxCell>
                <mxCell id="5qmP-6OTH-ESlq7DOyJe-23" style="edgeStyle=orthogonalEdgeStyle;rounded=0;orthogonalLoop=1;jettySize=auto;html=1;" parent="1" source="5qmP-6OTH-ESlq7DOyJe-22" target="5qmP-6OTH-ESlq7DOyJe-2" edge="1">
                    <mxGeometry relative="1" as="geometry"/>
                </mxCell>
                <mxCell id="5qmP-6OTH-ESlq7DOyJe-22" value="&quot;finish&quot;" style="shape=document;whiteSpace=wrap;html=1;boundedLbl=1;" parent="1" vertex="1">
                    <mxGeometry x="390" y="375" width="100" height="50" as="geometry"/>
                </mxCell>
                <mxCell id="5" style="edgeStyle=none;html=1;entryX=0.5;entryY=0;entryDx=0;entryDy=0;" edge="1" parent="1" source="2" target="5qmP-6OTH-ESlq7DOyJe-4">
                    <mxGeometry relative="1" as="geometry"/>
                </mxCell>
                <mxCell id="2" value="userN" style="shape=card;whiteSpace=wrap;html=1;" vertex="1" parent="1">
                    <mxGeometry x="170" y="140" width="115" height="60" as="geometry"/>
                </mxCell>
                <mxCell id="3" value="Text" style="text;html=1;strokeColor=none;fillColor=none;align=center;verticalAlign=middle;whiteSpace=wrap;rounded=0;" vertex="1" parent="1">
                    <mxGeometry x="410" y="330" width="60" height="30" as="geometry"/>
                </mxCell>
            </root>
        </mxGraphModel>
    </diagram>
</mxfile>